<?xml version="1.0" encoding="UTF-8" standalone="no"?>
<!DOCTYPE svg PUBLIC "-//W3C//DTD SVG 1.1//EN" "http://www.w3.org/Graphics/SVG/1.1/DTD/svg11.dtd">
<svg version="1.1" xmlns="http://www.w3.org/2000/svg" xmlns:xlink="http://www.w3.org/1999/xlink" preserveAspectRatio="xMidYMid meet" viewBox="23.442857142857065 74.1714285714291 607.3 528.6999999999999" width="603.3" height="524.7"><defs><path d="M425.24 75.17L627.74 192.07L627.74 425.87L326.14 599.87L24.44 425.77L24.44 192.07L226.84 75.17L326.04 132.47L425.24 75.17ZM321.04 586.37L321.04 489.17L236.84 537.77L321.04 586.37ZM415.24 537.77L331.04 489.17L331.04 586.37L415.24 537.77ZM514.44 480.77L430.24 432.17L430.24 529.37L514.44 480.77ZM316.04 480.77L231.84 432.17L231.84 529.37L316.04 480.77ZM420.24 529.37L420.24 432.17L336.04 480.77L420.24 529.37ZM221.84 529.37L221.84 432.17L137.64 480.77L221.84 529.37ZM216.84 423.47L132.64 374.87L132.64 472.17L216.84 423.47ZM519.44 472.17L519.44 374.97L435.24 423.57L519.44 472.17ZM122.64 472.17L122.64 374.97L38.44 423.57L122.64 472.17ZM415.24 423.47L331.04 374.87L331.04 472.07L415.24 423.47ZM613.64 423.47L529.44 374.87L529.44 472.07L613.64 423.47ZM321.04 472.07L321.04 374.87L236.84 423.47L321.04 472.07ZM420.24 414.87L420.24 317.67L336.04 366.27L420.24 414.87ZM618.74 414.87L618.74 317.67L534.54 366.27L618.74 414.87ZM221.84 414.87L221.84 317.67L137.64 366.27L221.84 414.87ZM117.64 366.17L33.44 317.57L33.44 414.77L117.64 366.17ZM514.44 366.17L430.24 317.57L430.24 414.77L514.44 366.17ZM316.04 366.17L231.84 317.57L231.84 414.77L316.04 366.17ZM415.24 308.97L331.04 260.37L331.04 357.57L415.24 308.97ZM122.64 260.37L38.44 308.97L122.64 357.57L122.64 260.37ZM216.84 308.97L132.64 260.37L132.64 357.57L216.84 308.97ZM519.44 260.37L435.24 308.97L519.44 357.57L519.44 260.37ZM613.64 308.87L529.44 260.27L529.44 357.47L613.64 308.87ZM321.04 357.47L321.04 260.27L236.84 308.87L321.04 357.47ZM430.24 203.07L430.24 300.27L514.44 251.67L430.24 203.07ZM33.44 203.07L33.44 300.27L117.64 251.67L33.44 203.07ZM316.04 251.67L231.84 203.07L231.84 300.27L316.04 251.67ZM420.24 300.27L420.24 203.07L336.04 251.67L420.24 300.27ZM618.74 300.27L618.74 203.07L534.54 251.67L618.74 300.27ZM221.84 300.27L221.84 203.07L137.64 251.67L221.84 300.27ZM321.04 242.97L321.04 145.77L236.84 194.37L321.04 242.97ZM415.24 194.37L331.04 145.77L331.04 242.97L415.24 194.37ZM519.44 242.97L519.44 145.77L435.24 194.37L519.44 242.97ZM613.64 194.37L529.44 145.77L529.44 242.97L613.64 194.37ZM216.84 194.37L132.64 145.77L132.64 242.97L216.84 194.37ZM122.64 242.97L122.64 145.77L38.44 194.37L122.64 242.97ZM221.84 185.77L221.84 88.47L137.64 137.07L221.84 185.77ZM420.24 185.67L420.24 88.47L336.04 137.07L420.24 185.67ZM514.44 137.07L430.24 88.47L430.24 185.67L514.44 137.07ZM316.04 137.07L231.84 88.47L231.84 185.67L316.04 137.07Z" id="a1BdZDcCCb"></path></defs><g><g><use xlink:href="#a1BdZDcCCb" opacity="1" fill="#11100d" fill-opacity="1"></use><g><use xlink:href="#a1BdZDcCCb" opacity="1" fill-opacity="0" stroke="#000000" stroke-width="1" stroke-opacity="0"></use></g></g></g></svg>