<svg version="1.1" xmlns="http://www.w3.org/2000/svg" xmlns:xlink="http://www.w3.org/1999/xlink" preserveAspectRatio="xMidYMid meet" viewBox="-1 6.759657897133906 644.2674794855544 628.4806842057324" width="640.27" height="624.48"><defs><path d="M0 327.89C0 469.36 91.72 589.33 218.94 631.65C234.94 634.58 240.78 624.7 240.78 616.26C240.78 608.64 240.49 583.39 240.33 556.66C151.31 576 132.5 518.91 132.5 518.91C117.92 481.94 96.95 472.09 96.95 472.09C67.86 452.24 99.16 452.63 99.16 452.63C131.3 454.86 148.23 485.62 148.23 485.62C176.79 534.54 223.18 520.4 241.39 512.19C244.3 491.56 252.58 477.41 261.71 469.44C190.65 461.35 115.89 433.88 115.89 311.21C115.89 276.23 128.37 247.7 148.81 225.29C145.55 217.16 134.53 184.59 151.98 140.53C151.98 140.53 178.82 131.93 240.02 173.36C265.54 166.22 292.91 162.71 320.13 162.59C347.33 162.71 374.73 166.26 400.28 173.4C461.36 131.93 488.25 140.57 488.25 140.57C505.76 184.67 494.74 217.2 491.46 225.29C511.97 247.7 524.36 276.23 524.36 311.21C524.36 434.19 449.48 461.27 378.17 469.2C389.69 479.13 399.89 498.59 399.89 528.45C399.89 571.24 399.46 605.74 399.46 616.3C399.46 624.81 405.29 634.78 421.5 631.65C548.63 589.25 640.27 469.28 640.27 327.89C640.27 151.1 496.93 7.76 320.13 7.76C143.34 7.76 0 151.1 0 327.89Z" id="dcLuHS2iJ"></path></defs><g><g><use xlink:href="#dcLuHS2iJ" opacity="1" fill="#000000" fill-opacity="1"></use><g><use xlink:href="#dcLuHS2iJ" opacity="1" fill-opacity="0" stroke="#000000" stroke-width="1" stroke-opacity="0"></use></g></g></g></svg>